# Blender 4.2.0
# www.blender.org
mtllib NavMeshTest.mtl
o NavMeshTest
v -9.364410 0.000000 15.032328
v 9.364410 0.000000 15.032328
v -9.364410 0.000000 -15.032328
v 9.364410 0.000000 -15.032328
v 0.000000 0.000000 15.032328
v 0.000000 0.000000 -15.032328
v -9.364410 0.000000 0.000000
v 9.364410 0.000000 0.000000
v 0.000000 0.000000 0.000000
v -9.364410 0.000000 7.516164
v 9.364410 0.000000 7.516164
v 0.000000 0.000000 7.516164
v -9.364410 0.000000 11.274246
v 9.364410 0.000000 11.274246
v 0.000000 0.000000 11.274246
v 9.364410 0.000000 -7.516164
v 0.000000 0.000000 -7.516164
v -9.364410 0.000000 -7.516164
v 9.364410 0.000000 -11.274246
v 0.000000 0.000000 -11.274246
v -9.364410 0.000000 -11.274246
v 4.682205 0.000000 15.032328
v 4.682205 0.000000 -15.032328
v 4.682205 0.000000 0.000000
v 4.682205 0.000000 7.516164
v 4.682205 0.000000 11.274246
v 4.682205 0.000000 -7.516164
v 4.682205 0.000000 -11.274246
v -4.682205 0.000000 -15.032328
v -4.682205 0.000000 15.032328
v -4.682205 0.000000 0.000000
v -4.682205 0.000000 7.516164
v -4.682205 0.000000 11.274246
v -4.682205 0.000000 -7.516164
v -4.682205 0.000000 -11.274246
v 9.364410 0.000000 3.758082
v 0.000000 0.000000 3.758082
v -9.364410 0.000000 3.758082
v 4.682205 0.000000 3.758082
v -4.682205 0.000000 3.758082
v -9.364410 0.000000 -3.758082
v 9.364410 0.000000 -3.758082
v 0.000000 0.000000 -3.758082
v 4.682205 0.000000 -3.758082
v -4.682205 0.000000 -3.758082
v 0.000000 0.000000 36.589115
v 4.682205 0.000000 36.589115
v 30.338217 0.000000 0.000000
v 30.338217 0.000000 -3.758082
v 0.000000 0.000000 -37.464382
v -4.682205 0.000000 -37.464382
v -38.646080 0.000000 0.000000
v -38.646080 0.000000 3.758082
v -4.682205 0.000000 -26.248356
v 0.000000 0.000000 -26.248356
v 0.000000 0.000000 -31.856369
v -4.682205 0.000000 -31.856369
v 19.886324 0.000000 -3.758082
v 19.886324 0.000000 0.000000
v 25.148220 0.000000 0.000000
v 25.148220 0.000000 -3.758082
v 4.682205 0.000000 25.810722
v 0.000000 0.000000 25.810722
v 0.000000 0.000000 31.199919
v 4.682205 0.000000 31.199919
v -24.005245 0.000000 3.758082
v -24.005245 0.000000 0.000000
v -31.325663 0.000000 0.000000
v -31.325663 0.000000 3.758082
v -16.684828 0.000000 3.758082
v -16.684828 0.000000 0.000000
v 4.682205 0.000000 20.421524
v 0.000000 0.000000 20.421524
v 14.625367 0.000000 -3.758082
v 14.625367 0.000000 0.000000
v -4.682205 0.000000 -20.640341
v 0.000000 0.000000 -20.640341
v 20.359789 0.000000 -26.248356
v 20.359789 0.000000 -20.640341
v -38.053787 0.000000 -37.464382
v -38.053787 0.000000 -31.856369
v -38.646080 0.000000 -18.885246
v -31.325663 0.000000 -18.885246
v -24.005245 0.000000 19.601101
v -16.684828 0.000000 19.601101
v 21.890226 0.000000 25.810722
v 21.890226 0.000000 20.421524
v -22.451160 0.000000 36.589115
v -22.451160 0.000000 31.199919
v 30.338217 0.000000 -19.948313
v 25.148220 0.000000 -19.948313
v 19.886324 0.000000 14.717805
v 14.625367 0.000000 14.717805
vn -0.0000 1.0000 -0.0000
vt 0.750000 0.875000
vt 1.000000 0.875000
vt 1.000000 1.000000
vt 0.750000 1.000000
vt 0.250000 0.875000
vt 0.500000 0.875000
vt 0.500000 1.000000
vt 0.250000 1.000000
vt 0.250000 0.375000
vt 0.500000 0.375000
vt 0.500000 0.500000
vt 0.250000 0.500000
vt 0.750000 0.375000
vt 1.000000 0.375000
vt 1.000000 0.500000
vt 0.750000 0.500000
vt 0.750000 0.125000
vt 1.000000 0.125000
vt 1.000000 0.250000
vt 0.750000 0.250000
vt 0.250000 0.125000
vt 0.500000 0.125000
vt 0.500000 0.250000
vt 0.250000 0.250000
vt 0.250000 0.000000
vt 0.500000 0.000000
vt 0.750000 0.000000
vt 1.000000 0.000000
vt 0.250000 0.625000
vt 0.500000 0.625000
vt 0.500000 0.750000
vt 0.250000 0.750000
vt 0.750000 0.625000
vt 1.000000 0.625000
vt 1.000000 0.750000
vt 0.750000 0.750000
vt 0.000000 0.750000
vt 0.000000 0.875000
vt 0.000000 0.625000
vt 0.000000 0.000000
vt 0.000000 0.125000
vt 0.000000 0.250000
vt 0.000000 0.375000
vt 0.000000 0.500000
vt 0.000000 1.000000
s 0
f 28/1/1 19/2/1 4/3/1 23/4/1
f 35/5/1 20/6/1 6/7/1 29/8/1
f 40/9/1 37/10/1 9/11/1 31/12/1
f 39/13/1 36/14/1 8/15/1 24/16/1
f 26/17/1 14/18/1 11/19/1 25/20/1
f 33/21/1 15/22/1 12/23/1 32/24/1
f 30/25/1 5/26/1 15/22/1 33/21/1
f 22/27/1 2/28/1 14/18/1 26/17/1
f 45/29/1 43/30/1 17/31/1 34/32/1
f 44/33/1 42/34/1 16/35/1 27/36/1
f 34/32/1 17/31/1 20/6/1 35/5/1
f 27/36/1 16/35/1 19/2/1 28/1/1
f 17/31/1 27/36/1 28/1/1 20/6/1
f 43/30/1 44/33/1 27/36/1 17/31/1
f 5/26/1 22/27/1 26/17/1 15/22/1
f 15/22/1 26/17/1 25/20/1 12/23/1
f 37/10/1 39/13/1 24/16/1 9/11/1
f 20/6/1 28/1/1 23/4/1 6/7/1
f 18/37/1 34/32/1 35/5/1 21/38/1
f 41/39/1 45/29/1 34/32/1 18/37/1
f 1/40/1 30/25/1 33/21/1 13/41/1
f 13/41/1 33/21/1 32/24/1 10/42/1
f 38/43/1 40/9/1 31/12/1 7/44/1
f 21/38/1 35/5/1 29/8/1 3/45/1
f 10/42/1 32/24/1 40/9/1 38/43/1
f 12/23/1 25/20/1 39/13/1 37/10/1
f 25/20/1 11/19/1 36/14/1 39/13/1
f 32/24/1 12/23/1 37/10/1 40/9/1
f 7/44/1 31/12/1 45/29/1 41/39/1
f 9/11/1 24/16/1 44/33/1 43/30/1
f 24/16/1 8/15/1 42/34/1 44/33/1
f 31/12/1 9/11/1 43/30/1 45/29/1
f 65/27/1 64/26/1 46/26/1 47/27/1
f 61/34/1 60/15/1 48/15/1 49/34/1
f 57/8/1 56/7/1 50/7/1 51/8/1
f 69/43/1 68/44/1 52/44/1 53/43/1
f 76/8/1 77/7/1 55/7/1 54/8/1
f 54/8/1 55/7/1 56/7/1 57/8/1
f 74/34/1 75/15/1 59/15/1 58/34/1
f 58/34/1 59/15/1 60/15/1 61/34/1
f 72/27/1 73/26/1 63/26/1 62/27/1
f 62/27/1 63/26/1 64/26/1 65/27/1
f 70/43/1 71/44/1 67/44/1 66/43/1
f 66/43/1 67/44/1 68/44/1 69/43/1
f 38/43/1 7/44/1 71/44/1 70/43/1
f 22/27/1 5/26/1 73/26/1 72/27/1
f 42/34/1 8/15/1 75/15/1 74/34/1
f 29/8/1 6/7/1 77/7/1 76/8/1
f 55/7/1 77/7/1 79/7/1 78/7/1
f 57/8/1 51/8/1 80/8/1 81/8/1
f 52/44/1 68/44/1 83/44/1 82/44/1
f 70/43/1 66/43/1 84/43/1 85/43/1
f 72/27/1 62/27/1 86/27/1 87/27/1
f 46/26/1 64/26/1 89/26/1 88/26/1
f 61/34/1 49/34/1 90/34/1 91/34/1
f 59/15/1 75/15/1 93/15/1 92/15/1
